{"accessors" : [{"bufferView" : 0, "byteOffset" : 0, "componentType" : 5123, "count" : 17184, "type" : "SCALAR", "max" : [7761], "min" : [0]}, {"bufferView" : 1, "byteOffset" : 0, "componentType" : 5126, "count" : 7762, "type" : "VEC3", "max" : [70.0001602172852, 35, 70.0001602172852], "min" : [-70.0001602172852, -35, -70.0001602172852]}, {"bufferView" : 1, "byteOffset" : 12, "componentType" : 5126, "count" : 7762, "type" : "VEC3", "max" : [1.00000441074371, 1.00000441074371, 1.00000441074371], "min" : [-1.00000441074371, -1.00000441074371, -1.00000441074371]}, {"bufferView" : 0, "byteOffset" : 34368, "componentType" : 5123, "count" : 11628, "type" : "SCALAR", "max" : [4617], "min" : [0]}, {"bufferView" : 2, "byteOffset" : 0, "componentType" : 5126, "count" : 4618, "type" : "VEC3", "max" : [54, 33, 54], "min" : [-54, -33, -54]}, {"bufferView" : 2, "byteOffset" : 12, "componentType" : 5126, "count" : 4618, "type" : "VEC3", "max" : [1.00000441074371, 1.00000441074371, 1.00000441074371], "min" : [-1.00000441074371, -1.00000441074371, -1.00000441074371]}, {"bufferView" : 0, "byteOffset" : 57624, "componentType" : 5123, "count" : 1560, "type" : "SCALAR", "max" : [699], "min" : [0]}, {"bufferView" : 3, "byteOffset" : 0, "componentType" : 5126, "count" : 700, "type" : "VEC3", "max" : [9, 10, 9], "min" : [-9, -10, -9]}, {"bufferView" : 3, "byteOffset" : 12, "componentType" : 5126, "count" : 700, "type" : "VEC3", "max" : [1.00000441074371, 1.00000441074371, 1.00000441074371], "min" : [-1.00000441074371, -1.00000441074371, -1.00000441074371]}, {"bufferView" : 0, "byteOffset" : 60744, "componentType" : 5123, "count" : 15012, "type" : "SCALAR", "max" : [7444], "min" : [0]}, {"bufferView" : 4, "byteOffset" : 0, "componentType" : 5126, "count" : 7445, "type" : "VEC3", "max" : [52.3499984741211, 10, 52.3499984741211], "min" : [-52.3499984741211, -10, -52.3499984741211]}, {"bufferView" : 4, "byteOffset" : 12, "componentType" : 5126, "count" : 7445, "type" : "VEC3", "max" : [1.00000441074371, 1.00000441074371, 1.00000441074371], "min" : [-1.00000441074371, -1.00000441074371, -1.00000441074371]}], "asset" : {"generator" : "Aspose.3D 20.2.1", "version" : "2.0"}, "buffers" : [{"uri" : "buffer.bin", "byteLength" : 583388}], "bufferViews" : [{"buffer" : 0, "byteOffset" : 0, "byteLength" : 90768, "target" : 34963}, {"buffer" : 0, "byteOffset" : 90772, "byteLength" : 186288, "byteStride" : 24, "target" : 34962}, {"buffer" : 0, "byteOffset" : 277064, "byteLength" : 110832, "byteStride" : 24, "target" : 34962}, {"buffer" : 0, "byteOffset" : 387900, "byteLength" : 16800, "byteStride" : 24, "target" : 34962}, {"buffer" : 0, "byteOffset" : 404704, "byteLength" : 178680, "byteStride" : 24, "target" : 34962}], "materials" : [{"pbrMetallicRoughness" : {"baseColorFactor" : [0.12156862745098, 0.12156862745098, 0.12156862745098, 1], "metallicFactor" : 0.5, "roughnessFactor" : 0.5}, "emissiveFactor" : [0, 0, 0], "alphaMode" : "OPAQUE", "doubleSided" : false}, {"pbrMetallicRoughness" : {"baseColorFactor" : [0.619607843137255, 0.63921568627451, 0.658823529411765, 1], "metallicFactor" : 0.5, "roughnessFactor" : 0.5}, "emissiveFactor" : [0, 0, 0], "alphaMode" : "OPAQUE", "doubleSided" : false}, {"pbrMetallicRoughness" : {"baseColorFactor" : [0.619607843137255, 0.63921568627451, 0.658823529411765, 1], "metallicFactor" : 0.5, "roughnessFactor" : 0.5}, "emissiveFactor" : [0, 0, 0], "alphaMode" : "OPAQUE", "doubleSided" : false}, {"pbrMetallicRoughness" : {"baseColorFactor" : [0.619607843137255, 0.63921568627451, 0.658823529411765, 1], "metallicFactor" : 0.5, "roughnessFactor" : 0.5}, "emissiveFactor" : [0, 0, 0], "alphaMode" : "OPAQUE", "doubleSided" : false}], "meshes" : [{"primitives" : [{"attributes" : {"POSITION" : 1, "NORMAL" : 2}, "indices" : 0, "material" : 0, "mode" : 4}]}, {"primitives" : [{"attributes" : {"POSITION" : 4, "NORMAL" : 5}, "indices" : 3, "material" : 1, "mode" : 4}]}, {"primitives" : [{"attributes" : {"POSITION" : 7, "NORMAL" : 8}, "indices" : 6, "material" : 2, "mode" : 4}]}, {"primitives" : [{"attributes" : {"POSITION" : 10, "NORMAL" : 11}, "indices" : 9, "material" : 3, "mode" : 4}]}], "nodes" : [{"matrix" : [1, 0, 0, 0, 0, 1, -1.42108E-14, 0, 0, 1.42108E-14, 1, 0, -1.52588E-05, 0, 2.53566E-06, 1], "mesh" : 0, "name" : "sym_1007.002"}, {"matrix" : [1, 0, 0, 0, 0, 1, -1.42108E-14, 0, 0, 1.42108E-14, 1, 0, -1.52588E-05, 0, 2.53566E-06, 1], "mesh" : 1, "name" : "Base.078"}, {"matrix" : [1, 0, 0, 0, 0, 0.9999999, -1.4210899289455E-14, 0, 0, 1.42109007105451E-14, 1, 0, -1.52588E-05, 0, 2.87849E-06, 1], "mesh" : 2, "name" : "Base.076"}, {"matrix" : [1, 0, 0, 0, 0, 1, 1.42108E-14, 0, 0, -1.42108E-14, 1, 0, 0, 51.11465, -7.92976E-07, 1], "mesh" : 3, "name" : "Base.075"}, {"children" : [0, 1, 2, 3], "name" : "Scene"}], "scene" : 0, "scenes" : [{"nodes" : [4]}]}